# xmcd CD database file
#
# Track frame offsets:
#	150
#	19069
#	34516
#	49753
#	71710
#	97842
#	116470
#	131810
#	151432
#	166184
#	181402
#	199904
#	216261
#	241827
#
# Disc length: 3383 seconds
#
# Revision: 0
# Processed by: cddbd v1.5.1PL0 Copyright (c) Steve Scherf et al.
# Submitted via: CDex 1.51
#
DISCID=bb0d350e
DTITLE=Brad North - Small Town
DYEAR=1999
DGENRE=Jazz
TTITLE0=No Intention
TTITLE1=Demon's Day Off
TTITLE2=Marlene
TTITLE3=Sunrise
TTITLE4=String Theory
TTITLE5=No Way Out
TTITLE6=Porch Swing
TTITLE7=Amazing Grace
TTITLE8=Small Town
TTITLE9=Peggy's Birthday
TTITLE10=Celtic Jazz Night at the Demon's Cafe
TTITLE11=Solid Ground
TTITLE12=Don't Look Down (Live - Nov '99)
TTITLE13=Have to Say Goodbye
EXTD=YEAR: 1999
EXTT0=
EXTT1=
EXTT2=
EXTT3=
EXTT4=
EXTT5=
EXTT6=
EXTT7=
EXTT8=
EXTT9=
EXTT10=
EXTT11=
EXTT12=
EXTT13=
PLAYORDER=
